
<svg width="130" height="40" viewBox="0 0 130 40" fill="none" xmlns="http://www.w3.org/2000/svg">
  <path d="M28.5 15.5c-1.4-1.4-3.6-1.4-5 0L21 18c-1.4 1.4-1.4 3.6 0 5l2.5 2.5c1.4 1.4 3.6 1.4 5 0l2.5-2.5c1.4-1.4 1.4-3.6 0-5l-2.5-2.5z" fill="#0091FF"/>
  <path d="M33.9 10.1c-2.8-2.8-7.1-2.8-9.9 0l-7.9 7.9c-2.8 2.8-2.8 7.1 0 9.9l3 3c2.8 2.8 7.1 2.8 9.9 0l7.9-7.9c2.8-2.8 2.8-7.1 0-9.9l-3-3z" fill="#FFC500"/>
  <path d="M25 5c-3.8-3.8-10-3.8-13.8 0l-5 5C2.3 14.2 2.3 20.3 6.2 24.1l5 5c3.8 3.8 10 3.8 13.8 0l5-5c3.8-3.8 3.8-10 0-13.8l-5-5.3z" fill="#FF6A6A"/>
  <path d="M44.7 11.2H49l4.2 11.3 4.2-11.3h4.3v17.5h-3.4V15.6l-4.4 13.1h-1.5l-4.4-13.1v13.1h-3.4V11.2h.1zM66 18.4c.5-.7 1.1-1.3 1.8-1.6.7-.4 1.5-.6 2.3-.6 1 0 1.9.3 2.7.8s1.3 1.3 1.7 2.3c.4 1 .6 2.1.6 3.3s-.2 2.3-.6 3.3-1 1.8-1.7 2.3c-.8.6-1.7.8-2.7.8-.9 0-1.6-.2-2.3-.5-.7-.4-1.2-.9-1.7-1.5v6.7h-3.3V16.5h3.3v1.9h-.1zm6.6 4.2c0-1.1-.3-2-.8-2.6-.5-.6-1.2-1-2-1s-1.5.3-2 1c-.5.6-.8 1.5-.8 2.6s.3 2 .8 2.6c.5.6 1.2 1 2 1s1.5-.3 2-1c.5-.6.8-1.5.8-2.6zM82.6 17.4c.7-.7 1.5-1.3 2.4-1.6.9-.4 1.9-.6 3-.6 1.3 0 2.5.3 3.6.9 1.1.6 1.9 1.4 2.5 2.5.6 1.1.9 2.3.9 3.7s-.3 2.6-.9 3.7-1.5 1.9-2.5 2.5c-1.1.6-2.3.9-3.6.9-1.1 0-2.1-.2-3-.6-.9-.4-1.7-.9-2.4-1.6v2h-3.3V9.8h3.3v7.6zm7.5 5.2c0-1.1-.3-2-.9-2.6-.6-.7-1.4-1-2.3-1-.9 0-1.7.3-2.3 1-.6.7-.9 1.5-.9 2.6s.3 2 .9 2.6c.6.7 1.4 1 2.3 1 .9 0 1.7-.3 2.3-1 .6-.6.9-1.5.9-2.6zM109.7 23.1h-10.9c.1.9.5 1.6 1.1 2.1.6.5 1.3.7 2.2.7 1.3 0 2.3-.6 2.9-1.7h4.3c-.4 1.5-1.2 2.6-2.5 3.5-1.3.9-2.8 1.3-4.7 1.3-1.5 0-2.8-.3-4-.9-1.2-.6-2.1-1.4-2.7-2.5-.7-1.1-1-2.4-1-3.7 0-1.4.3-2.7 1-3.7.7-1.1 1.6-1.9 2.7-2.5 1.2-.6 2.5-.9 4-.9s2.8.3 3.9.9c1.1.6 2 1.4 2.6 2.5.6 1.1.9 2.3.9 3.7 0 .4 0 .8-.1 1.2h.3zm-3.6-2.6c0-.8-.3-1.4-.9-1.9-.6-.5-1.3-.7-2.1-.7-.8 0-1.5.2-2.1.7-.6.5-.9 1.1-1.1 1.9h6.2zM113.9 28.4c-.8-.4-1.4-.9-1.8-1.5-.4-.6-.6-1.3-.7-2h3.5c.1.5.3.9.7 1.1.4.3.9.4 1.6.4.6 0 1.1-.1 1.4-.3.3-.2.5-.5.5-.9 0-.4-.2-.7-.5-.9-.4-.2-1-.4-1.9-.6-.9-.2-1.7-.4-2.3-.6-.6-.2-1.1-.6-1.6-1.1-.5-.5-.7-1.2-.7-2.1 0-.8.2-1.4.6-2 .4-.6 1-1 1.8-1.3.8-.3 1.7-.5 2.7-.5 1.5 0 2.8.4 3.7 1.1.9.7 1.4 1.7 1.6 3h-3.3c-.1-.5-.3-.8-.7-1.1-.3-.3-.8-.4-1.4-.4-.5 0-.9.1-1.2.3-.3.2-.4.5-.4.8 0 .4.2.7.5.9.4.2 1 .4 1.9.6.9.2 1.7.4 2.3.7.6.2 1.2.6 1.6 1.1.5.5.7 1.2.7 2.1 0 .7-.2 1.4-.6 2-.4.6-1 1-1.8 1.4-.8.3-1.7.5-2.8.5-1.1-.1-2-.3-2.8-.7z" fill="white"/>
</svg>
